<svg xmlns="http://www.w3.org/2000/svg" viewBox="0 0 900 900"><path d="M0 0h900v900H0z"/><path fill="#fff" d="M398.5 102c-3.4 2.2-5 5.1-13.5 24.5l-8.5 19-20 45-20 45L314 286a10918 10918 0 0 1-34 76.5c-17.7 38.3-55 124.1-55 126.6s.9 4.6 2 6.4c4 6.5 2.1 6.3 70 6.3l63.9.1c2.1.1 2.3.4 1.6 3.8l-1.1 6.3-1 4.2-.9 3.5a1847 1847 0 0 1-10 46 697 697 0 0 1-6 28.4l-2.5 11.5a2917 2917 0 0 0-5.1 23.9l-3.4 15.5-5.1 23.5a2638 2638 0 0 1-10 47l-2.5 11.2-2.4 11.3-2.5 11.5-2.5 11.2-2.9 13.4c-3.4 15.7-2.4 20.9 4.9 24.3 4.6 2.2 8.5 2 12.2-.7 1.8-1.2 11.8-13.2 22.3-26.7l21-26.9 7.7-9.9 27.6-35.2 13.2-16.9L430 661l7.5-9.6 48.8-62.4 19.2-24.5 25.5-32.6 9.7-12.5 4.2-5.4 23.1-29.5 22.3-28.5 28.2-36c27.9-35.8 38.7-49.5 40.7-51.9s3.7-8.5 3.1-11.1c-.8-3.8-4.9-8.7-8-9.7-1.7-.6-29.7-1-70.1-1s-67.5-.2-67.8-.5 2.9-7.6 7.1-16.3l7.5-16.1 7.5-15.9 7.5-16c0-.2 3.8-8.3 16.5-35a2834 2834 0 0 0 14.5-31.1l7.1-15 9.2-19.4 15.4-33 8.5-17.9c6.9-14.6 7.7-18.2 5-23.1-4-7.5 3.8-7-114.7-7s-106.1.1-109 2"/></svg>
