<?xml version="1.0" encoding="UTF-8"?>
<svg id="V2" xmlns="http://www.w3.org/2000/svg" viewBox="410 460 672 567">
  <defs>
    <style>
      .cls-1 {
        fill: #ffa700;
      }

      .cls-2 {
        fill: #ffde1a;
      }
    </style>
  </defs>
  <path class="cls-2" d="M867.8,494.65l-47.75,131.16-17.57,48.32-45.73,125.66c-.08.2-.15.38-.2.59l-1.61,4.37-.36,1c-.03.08-.05.13-.08.2-10.1,25.73-28.39,46.78-51.31,59.34-14.81,8.13-31.51,12.69-49.24,12.69-34.15,0-64.63-16.96-84.66-43.53v-.03c-6.47-8.57-11.84-18.13-15.88-28.47-.03-.08-.05-.13-.08-.2l-.36-1-1.61-4.37c-.05-.2-.13-.38-.2-.59l-45.73-125.66-65.32-179.48h128.19l34.58,94.99,20.54,56.47,5.29,14.53,25.24,69.37,4.71,12.92.08-.05c4.96,14.2,17.62,24.3,32.48,24.3,11.97,0,22.51-6.55,28.75-16.52h.03l.92-1.59,27.8-48.16,33.33-57.73,14.94-25.88h.03l70.8-122.64Z"/>
  <path class="cls-1" d="M1059.91,494.65l-140.16,385.09-.46,1.3c-1.02,2.76-2.1,5.53-3.25,8.21-28.06,67.17-89.8,114.28-161.9,116.02-1.41.05-2.81.08-4.22.08s-2.69-.02-4.04-.08c-20.9-.46-40.92-4.76-59.49-12.25-31.2-12.56-58.34-34.12-78.78-61.74,14.73,4.42,30.28,6.8,46.35,6.8,19.67,0,38.57-3.56,56.12-10.08,4.71-1.74,9.31-3.68,13.81-5.86,39.49-18.93,70.93-53.41,87.19-95.94.77-1.99,1.48-3.99,2.17-6.01l58.04-159.42,60.46-166.12h128.17Z"/>
</svg>